<mxfile host="app.diagrams.net" modified="2024-06-10T10:51:33.862Z" agent="Mozilla/5.0 (Windows NT 10.0; Win64; x64) AppleWebKit/537.36 (KHTML, like Gecko) Chrome/125.0.0.0 Safari/537.36 Edg/125.0.0.0" etag="4_aciKc9GqpvgDf5k-99" version="24.5.2" type="device">
  <diagram name="Page-1" id="VLuzDLeMnFQj7D2vGwUx">
    <mxGraphModel dx="2275" dy="1404" grid="1" gridSize="10" guides="1" tooltips="1" connect="1" arrows="1" fold="1" page="0" pageScale="1" pageWidth="850" pageHeight="1100" background="none" math="0" shadow="0">
      <root>
        <mxCell id="0" />
        <mxCell id="1" parent="0" />
        <mxCell id="5UM-Hns9XQgAQtrVBFiw-123" value="updatePos" style="rounded=0;whiteSpace=wrap;html=1;fontSize=16;" parent="1" vertex="1">
          <mxGeometry x="-1070" y="-230" width="120" height="60" as="geometry" />
        </mxCell>
        <mxCell id="5UM-Hns9XQgAQtrVBFiw-124" value="updateFramesTick" style="rounded=0;whiteSpace=wrap;html=1;fontSize=16;" parent="1" vertex="1">
          <mxGeometry x="-1070" y="-120" width="120" height="60" as="geometry" />
        </mxCell>
        <mxCell id="5UM-Hns9XQgAQtrVBFiw-125" value="setAnimation" style="rounded=0;whiteSpace=wrap;html=1;fontSize=16;" parent="1" vertex="1">
          <mxGeometry x="-1070" width="120" height="60" as="geometry" />
        </mxCell>
        <mxCell id="5UM-Hns9XQgAQtrVBFiw-143" style="edgeStyle=orthogonalEdgeStyle;rounded=0;orthogonalLoop=1;jettySize=auto;html=1;entryX=0.5;entryY=0;entryDx=0;entryDy=0;fontSize=16;" parent="1" source="5UM-Hns9XQgAQtrVBFiw-126" target="5UM-Hns9XQgAQtrVBFiw-127" edge="1">
          <mxGeometry relative="1" as="geometry" />
        </mxCell>
        <mxCell id="5UM-Hns9XQgAQtrVBFiw-126" value="updatePos" style="rounded=0;whiteSpace=wrap;html=1;fontSize=16;" parent="1" vertex="1">
          <mxGeometry x="620" y="-220" width="120" height="60" as="geometry" />
        </mxCell>
        <mxCell id="5UM-Hns9XQgAQtrVBFiw-144" style="edgeStyle=orthogonalEdgeStyle;rounded=0;orthogonalLoop=1;jettySize=auto;html=1;entryX=0.5;entryY=0;entryDx=0;entryDy=0;fontSize=16;" parent="1" source="5UM-Hns9XQgAQtrVBFiw-127" target="5UM-Hns9XQgAQtrVBFiw-128" edge="1">
          <mxGeometry relative="1" as="geometry" />
        </mxCell>
        <mxCell id="5UM-Hns9XQgAQtrVBFiw-127" value="moving = false" style="rounded=0;whiteSpace=wrap;html=1;fontSize=16;" parent="1" vertex="1">
          <mxGeometry x="620" y="-120" width="120" height="60" as="geometry" />
        </mxCell>
        <mxCell id="5UM-Hns9XQgAQtrVBFiw-131" style="edgeStyle=orthogonalEdgeStyle;rounded=0;orthogonalLoop=1;jettySize=auto;html=1;entryX=0;entryY=0.5;entryDx=0;entryDy=0;fontSize=16;" parent="1" source="5UM-Hns9XQgAQtrVBFiw-128" target="5UM-Hns9XQgAQtrVBFiw-130" edge="1">
          <mxGeometry relative="1" as="geometry">
            <mxPoint x="850" y="-150" as="targetPoint" />
            <Array as="points">
              <mxPoint x="820" y="10" />
              <mxPoint x="820" y="10" />
            </Array>
          </mxGeometry>
        </mxCell>
        <mxCell id="5UM-Hns9XQgAQtrVBFiw-132" value="True" style="edgeLabel;html=1;align=center;verticalAlign=middle;resizable=0;points=[];fontSize=16;" parent="5UM-Hns9XQgAQtrVBFiw-131" vertex="1" connectable="0">
          <mxGeometry x="-0.2462" y="-2" relative="1" as="geometry">
            <mxPoint x="15" y="-2" as="offset" />
          </mxGeometry>
        </mxCell>
        <mxCell id="5UM-Hns9XQgAQtrVBFiw-133" style="edgeStyle=orthogonalEdgeStyle;rounded=0;orthogonalLoop=1;jettySize=auto;html=1;fontSize=16;" parent="1" source="5UM-Hns9XQgAQtrVBFiw-128" target="5UM-Hns9XQgAQtrVBFiw-129" edge="1">
          <mxGeometry relative="1" as="geometry">
            <Array as="points">
              <mxPoint x="690" y="120" />
              <mxPoint x="690" y="120" />
            </Array>
          </mxGeometry>
        </mxCell>
        <mxCell id="5UM-Hns9XQgAQtrVBFiw-134" value="False" style="edgeLabel;html=1;align=center;verticalAlign=middle;resizable=0;points=[];fontSize=16;" parent="5UM-Hns9XQgAQtrVBFiw-133" vertex="1" connectable="0">
          <mxGeometry x="-0.3" y="2" relative="1" as="geometry">
            <mxPoint as="offset" />
          </mxGeometry>
        </mxCell>
        <mxCell id="5UM-Hns9XQgAQtrVBFiw-197" style="edgeStyle=orthogonalEdgeStyle;rounded=0;orthogonalLoop=1;jettySize=auto;html=1;dashed=1;" parent="1" source="5UM-Hns9XQgAQtrVBFiw-128" target="5UM-Hns9XQgAQtrVBFiw-196" edge="1">
          <mxGeometry relative="1" as="geometry" />
        </mxCell>
        <mxCell id="5UM-Hns9XQgAQtrVBFiw-128" value="if(jump)" style="rounded=0;whiteSpace=wrap;html=1;fontSize=16;" parent="1" vertex="1">
          <mxGeometry x="620" y="-20" width="120" height="60" as="geometry" />
        </mxCell>
        <mxCell id="5UM-Hns9XQgAQtrVBFiw-136" style="edgeStyle=orthogonalEdgeStyle;rounded=0;orthogonalLoop=1;jettySize=auto;html=1;entryX=0;entryY=0.5;entryDx=0;entryDy=0;fontSize=16;" parent="1" source="5UM-Hns9XQgAQtrVBFiw-129" target="5UM-Hns9XQgAQtrVBFiw-135" edge="1">
          <mxGeometry relative="1" as="geometry" />
        </mxCell>
        <mxCell id="5UM-Hns9XQgAQtrVBFiw-137" value="True" style="edgeLabel;html=1;align=center;verticalAlign=middle;resizable=0;points=[];fontSize=16;" parent="5UM-Hns9XQgAQtrVBFiw-136" vertex="1" connectable="0">
          <mxGeometry x="-0.3833" y="-1" relative="1" as="geometry">
            <mxPoint x="23" y="-1" as="offset" />
          </mxGeometry>
        </mxCell>
        <mxCell id="5UM-Hns9XQgAQtrVBFiw-146" style="edgeStyle=orthogonalEdgeStyle;rounded=0;orthogonalLoop=1;jettySize=auto;html=1;entryX=0.5;entryY=0;entryDx=0;entryDy=0;fontSize=16;" parent="1" source="5UM-Hns9XQgAQtrVBFiw-129" target="5UM-Hns9XQgAQtrVBFiw-145" edge="1">
          <mxGeometry relative="1" as="geometry" />
        </mxCell>
        <mxCell id="5UM-Hns9XQgAQtrVBFiw-147" value="False" style="edgeLabel;html=1;align=center;verticalAlign=middle;resizable=0;points=[];fontSize=16;" parent="5UM-Hns9XQgAQtrVBFiw-146" vertex="1" connectable="0">
          <mxGeometry x="-0.04" y="3" relative="1" as="geometry">
            <mxPoint as="offset" />
          </mxGeometry>
        </mxCell>
        <mxCell id="5UM-Hns9XQgAQtrVBFiw-129" value="if(!inAir)" style="rounded=0;whiteSpace=wrap;html=1;fontSize=16;" parent="1" vertex="1">
          <mxGeometry x="620" y="100" width="120" height="60" as="geometry" />
        </mxCell>
        <mxCell id="5UM-Hns9XQgAQtrVBFiw-200" style="edgeStyle=orthogonalEdgeStyle;rounded=0;orthogonalLoop=1;jettySize=auto;html=1;dashed=1;" parent="1" source="5UM-Hns9XQgAQtrVBFiw-130" target="5UM-Hns9XQgAQtrVBFiw-199" edge="1">
          <mxGeometry relative="1" as="geometry" />
        </mxCell>
        <mxCell id="5UM-Hns9XQgAQtrVBFiw-215" style="edgeStyle=orthogonalEdgeStyle;rounded=0;orthogonalLoop=1;jettySize=auto;html=1;entryX=0.5;entryY=1;entryDx=0;entryDy=0;dashed=1;" parent="1" source="5UM-Hns9XQgAQtrVBFiw-130" target="5UM-Hns9XQgAQtrVBFiw-213" edge="1">
          <mxGeometry relative="1" as="geometry" />
        </mxCell>
        <mxCell id="5UM-Hns9XQgAQtrVBFiw-130" value="jump()" style="rounded=0;whiteSpace=wrap;html=1;fontSize=16;" parent="1" vertex="1">
          <mxGeometry x="860" y="-20" width="120" height="60" as="geometry" />
        </mxCell>
        <mxCell id="5UM-Hns9XQgAQtrVBFiw-141" style="edgeStyle=orthogonalEdgeStyle;rounded=0;orthogonalLoop=1;jettySize=auto;html=1;entryX=0;entryY=0.5;entryDx=0;entryDy=0;fontSize=16;" parent="1" source="5UM-Hns9XQgAQtrVBFiw-135" target="5UM-Hns9XQgAQtrVBFiw-140" edge="1">
          <mxGeometry relative="1" as="geometry" />
        </mxCell>
        <mxCell id="5UM-Hns9XQgAQtrVBFiw-142" value="True" style="edgeLabel;html=1;align=center;verticalAlign=middle;resizable=0;points=[];fontSize=16;" parent="5UM-Hns9XQgAQtrVBFiw-141" vertex="1" connectable="0">
          <mxGeometry x="-0.1" y="-2" relative="1" as="geometry">
            <mxPoint as="offset" />
          </mxGeometry>
        </mxCell>
        <mxCell id="5UM-Hns9XQgAQtrVBFiw-135" value="if((left &amp;amp;&amp;amp; right) || (!left &amp;amp;&amp;amp; !right)" style="rounded=0;whiteSpace=wrap;html=1;fontSize=16;" parent="1" vertex="1">
          <mxGeometry x="860" y="100" width="210" height="60" as="geometry" />
        </mxCell>
        <mxCell id="5UM-Hns9XQgAQtrVBFiw-140" value="return(end updatePos())" style="rounded=0;whiteSpace=wrap;html=1;fontSize=16;" parent="1" vertex="1">
          <mxGeometry x="1190" y="100" width="190" height="60" as="geometry" />
        </mxCell>
        <mxCell id="5UM-Hns9XQgAQtrVBFiw-149" style="edgeStyle=orthogonalEdgeStyle;rounded=0;orthogonalLoop=1;jettySize=auto;html=1;entryX=0.5;entryY=0;entryDx=0;entryDy=0;fontSize=16;" parent="1" source="5UM-Hns9XQgAQtrVBFiw-145" target="5UM-Hns9XQgAQtrVBFiw-148" edge="1">
          <mxGeometry relative="1" as="geometry" />
        </mxCell>
        <mxCell id="5UM-Hns9XQgAQtrVBFiw-145" value="xSpeed = 0" style="rounded=0;whiteSpace=wrap;html=1;fontSize=16;" parent="1" vertex="1">
          <mxGeometry x="620" y="210" width="120" height="60" as="geometry" />
        </mxCell>
        <mxCell id="5UM-Hns9XQgAQtrVBFiw-151" style="edgeStyle=orthogonalEdgeStyle;rounded=0;orthogonalLoop=1;jettySize=auto;html=1;entryX=0;entryY=0.5;entryDx=0;entryDy=0;fontSize=16;" parent="1" source="5UM-Hns9XQgAQtrVBFiw-148" target="5UM-Hns9XQgAQtrVBFiw-150" edge="1">
          <mxGeometry relative="1" as="geometry" />
        </mxCell>
        <mxCell id="5UM-Hns9XQgAQtrVBFiw-152" value="True" style="edgeLabel;html=1;align=center;verticalAlign=middle;resizable=0;points=[];fontSize=16;" parent="5UM-Hns9XQgAQtrVBFiw-151" vertex="1" connectable="0">
          <mxGeometry x="-0.0333" y="-1" relative="1" as="geometry">
            <mxPoint as="offset" />
          </mxGeometry>
        </mxCell>
        <mxCell id="5UM-Hns9XQgAQtrVBFiw-155" style="edgeStyle=orthogonalEdgeStyle;rounded=0;orthogonalLoop=1;jettySize=auto;html=1;entryX=0.5;entryY=0;entryDx=0;entryDy=0;fontSize=16;" parent="1" source="5UM-Hns9XQgAQtrVBFiw-148" target="5UM-Hns9XQgAQtrVBFiw-154" edge="1">
          <mxGeometry relative="1" as="geometry" />
        </mxCell>
        <mxCell id="5UM-Hns9XQgAQtrVBFiw-158" value="False" style="edgeLabel;html=1;align=center;verticalAlign=middle;resizable=0;points=[];fontSize=16;" parent="5UM-Hns9XQgAQtrVBFiw-155" vertex="1" connectable="0">
          <mxGeometry x="0.08" y="-1" relative="1" as="geometry">
            <mxPoint as="offset" />
          </mxGeometry>
        </mxCell>
        <mxCell id="5UM-Hns9XQgAQtrVBFiw-148" value="if(left)" style="rounded=0;whiteSpace=wrap;html=1;fontSize=16;" parent="1" vertex="1">
          <mxGeometry x="620" y="310" width="120" height="60" as="geometry" />
        </mxCell>
        <mxCell id="5UM-Hns9XQgAQtrVBFiw-150" value="xSpeed -= speed" style="rounded=0;whiteSpace=wrap;html=1;fontSize=16;" parent="1" vertex="1">
          <mxGeometry x="860" y="310" width="200" height="60" as="geometry" />
        </mxCell>
        <mxCell id="5UM-Hns9XQgAQtrVBFiw-157" style="edgeStyle=orthogonalEdgeStyle;rounded=0;orthogonalLoop=1;jettySize=auto;html=1;entryX=0;entryY=0.5;entryDx=0;entryDy=0;fontSize=16;" parent="1" source="5UM-Hns9XQgAQtrVBFiw-154" target="5UM-Hns9XQgAQtrVBFiw-156" edge="1">
          <mxGeometry relative="1" as="geometry" />
        </mxCell>
        <mxCell id="5UM-Hns9XQgAQtrVBFiw-164" value="True" style="edgeLabel;html=1;align=center;verticalAlign=middle;resizable=0;points=[];fontSize=16;" parent="5UM-Hns9XQgAQtrVBFiw-157" vertex="1" connectable="0">
          <mxGeometry x="0.0333" y="3" relative="1" as="geometry">
            <mxPoint as="offset" />
          </mxGeometry>
        </mxCell>
        <mxCell id="5UM-Hns9XQgAQtrVBFiw-160" style="edgeStyle=orthogonalEdgeStyle;rounded=0;orthogonalLoop=1;jettySize=auto;html=1;entryX=0.5;entryY=0;entryDx=0;entryDy=0;fontSize=16;" parent="1" source="5UM-Hns9XQgAQtrVBFiw-154" target="5UM-Hns9XQgAQtrVBFiw-159" edge="1">
          <mxGeometry relative="1" as="geometry" />
        </mxCell>
        <mxCell id="5UM-Hns9XQgAQtrVBFiw-161" value="False" style="edgeLabel;html=1;align=center;verticalAlign=middle;resizable=0;points=[];fontSize=16;" parent="5UM-Hns9XQgAQtrVBFiw-160" vertex="1" connectable="0">
          <mxGeometry y="-1" relative="1" as="geometry">
            <mxPoint as="offset" />
          </mxGeometry>
        </mxCell>
        <mxCell id="5UM-Hns9XQgAQtrVBFiw-154" value="if(right)" style="rounded=0;whiteSpace=wrap;html=1;fontSize=16;" parent="1" vertex="1">
          <mxGeometry x="620" y="463" width="120" height="60" as="geometry" />
        </mxCell>
        <mxCell id="5UM-Hns9XQgAQtrVBFiw-156" value="xSpeed += speed" style="rounded=0;whiteSpace=wrap;html=1;fontSize=16;" parent="1" vertex="1">
          <mxGeometry x="860" y="463" width="200" height="60" as="geometry" />
        </mxCell>
        <mxCell id="5UM-Hns9XQgAQtrVBFiw-163" style="edgeStyle=orthogonalEdgeStyle;rounded=0;orthogonalLoop=1;jettySize=auto;html=1;entryX=0;entryY=0.5;entryDx=0;entryDy=0;fontSize=16;" parent="1" source="5UM-Hns9XQgAQtrVBFiw-159" target="5UM-Hns9XQgAQtrVBFiw-162" edge="1">
          <mxGeometry relative="1" as="geometry" />
        </mxCell>
        <mxCell id="5UM-Hns9XQgAQtrVBFiw-165" value="True" style="edgeLabel;html=1;align=center;verticalAlign=middle;resizable=0;points=[];fontSize=16;" parent="5UM-Hns9XQgAQtrVBFiw-163" vertex="1" connectable="0">
          <mxGeometry x="0.0167" relative="1" as="geometry">
            <mxPoint as="offset" />
          </mxGeometry>
        </mxCell>
        <mxCell id="5UM-Hns9XQgAQtrVBFiw-174" style="edgeStyle=orthogonalEdgeStyle;rounded=0;orthogonalLoop=1;jettySize=auto;html=1;fontSize=16;" parent="1" source="5UM-Hns9XQgAQtrVBFiw-159" target="5UM-Hns9XQgAQtrVBFiw-169" edge="1">
          <mxGeometry relative="1" as="geometry" />
        </mxCell>
        <mxCell id="5UM-Hns9XQgAQtrVBFiw-175" value="False" style="edgeLabel;html=1;align=center;verticalAlign=middle;resizable=0;points=[];fontSize=16;" parent="5UM-Hns9XQgAQtrVBFiw-174" vertex="1" connectable="0">
          <mxGeometry x="-0.12" y="3" relative="1" as="geometry">
            <mxPoint as="offset" />
          </mxGeometry>
        </mxCell>
        <mxCell id="5UM-Hns9XQgAQtrVBFiw-159" value="if(!inAir)" style="rounded=0;whiteSpace=wrap;html=1;fontSize=16;" parent="1" vertex="1">
          <mxGeometry x="620" y="583" width="120" height="60" as="geometry" />
        </mxCell>
        <mxCell id="5UM-Hns9XQgAQtrVBFiw-167" style="edgeStyle=orthogonalEdgeStyle;rounded=0;orthogonalLoop=1;jettySize=auto;html=1;fontSize=16;" parent="1" source="5UM-Hns9XQgAQtrVBFiw-162" target="5UM-Hns9XQgAQtrVBFiw-166" edge="1">
          <mxGeometry relative="1" as="geometry" />
        </mxCell>
        <mxCell id="5UM-Hns9XQgAQtrVBFiw-168" value="True" style="edgeLabel;html=1;align=center;verticalAlign=middle;resizable=0;points=[];fontSize=16;" parent="5UM-Hns9XQgAQtrVBFiw-167" vertex="1" connectable="0">
          <mxGeometry x="-0.1143" y="-1" relative="1" as="geometry">
            <mxPoint as="offset" />
          </mxGeometry>
        </mxCell>
        <mxCell id="5UM-Hns9XQgAQtrVBFiw-162" value="if(IsEntityOnFloor)" style="rounded=0;whiteSpace=wrap;html=1;fontSize=16;" parent="1" vertex="1">
          <mxGeometry x="860" y="583" width="170" height="60" as="geometry" />
        </mxCell>
        <mxCell id="5UM-Hns9XQgAQtrVBFiw-166" value="inAir = true" style="rounded=0;whiteSpace=wrap;html=1;fontSize=16;" parent="1" vertex="1">
          <mxGeometry x="1130" y="583" width="120" height="60" as="geometry" />
        </mxCell>
        <mxCell id="5UM-Hns9XQgAQtrVBFiw-177" style="edgeStyle=orthogonalEdgeStyle;rounded=0;orthogonalLoop=1;jettySize=auto;html=1;entryX=0;entryY=0.5;entryDx=0;entryDy=0;fontSize=16;" parent="1" source="5UM-Hns9XQgAQtrVBFiw-169" target="5UM-Hns9XQgAQtrVBFiw-170" edge="1">
          <mxGeometry relative="1" as="geometry" />
        </mxCell>
        <mxCell id="5UM-Hns9XQgAQtrVBFiw-179" value="True" style="edgeLabel;html=1;align=center;verticalAlign=middle;resizable=0;points=[];fontSize=16;" parent="5UM-Hns9XQgAQtrVBFiw-177" vertex="1" connectable="0">
          <mxGeometry x="-0.1667" y="-1" relative="1" as="geometry">
            <mxPoint y="1" as="offset" />
          </mxGeometry>
        </mxCell>
        <mxCell id="5UM-Hns9XQgAQtrVBFiw-181" style="edgeStyle=orthogonalEdgeStyle;rounded=0;orthogonalLoop=1;jettySize=auto;html=1;entryX=0.5;entryY=0;entryDx=0;entryDy=0;fontSize=16;" parent="1" source="5UM-Hns9XQgAQtrVBFiw-169" target="5UM-Hns9XQgAQtrVBFiw-172" edge="1">
          <mxGeometry relative="1" as="geometry" />
        </mxCell>
        <mxCell id="5UM-Hns9XQgAQtrVBFiw-183" value="False" style="edgeLabel;html=1;align=center;verticalAlign=middle;resizable=0;points=[];fontSize=16;" parent="5UM-Hns9XQgAQtrVBFiw-181" vertex="1" connectable="0">
          <mxGeometry x="0.1377" y="-3" relative="1" as="geometry">
            <mxPoint y="1" as="offset" />
          </mxGeometry>
        </mxCell>
        <mxCell id="5UM-Hns9XQgAQtrVBFiw-169" value="if(inAir)" style="rounded=0;whiteSpace=wrap;html=1;fontSize=16;" parent="1" vertex="1">
          <mxGeometry x="620" y="716.5" width="120" height="60" as="geometry" />
        </mxCell>
        <mxCell id="5UM-Hns9XQgAQtrVBFiw-178" style="edgeStyle=orthogonalEdgeStyle;rounded=0;orthogonalLoop=1;jettySize=auto;html=1;entryX=0;entryY=0.5;entryDx=0;entryDy=0;fontSize=16;" parent="1" source="5UM-Hns9XQgAQtrVBFiw-170" target="5UM-Hns9XQgAQtrVBFiw-176" edge="1">
          <mxGeometry relative="1" as="geometry" />
        </mxCell>
        <mxCell id="5UM-Hns9XQgAQtrVBFiw-180" value="True" style="edgeLabel;html=1;align=center;verticalAlign=middle;resizable=0;points=[];fontSize=16;" parent="5UM-Hns9XQgAQtrVBFiw-178" vertex="1" connectable="0">
          <mxGeometry x="-0.22" y="2" relative="1" as="geometry">
            <mxPoint y="1" as="offset" />
          </mxGeometry>
        </mxCell>
        <mxCell id="5UM-Hns9XQgAQtrVBFiw-184" value="False" style="edgeStyle=orthogonalEdgeStyle;rounded=0;orthogonalLoop=1;jettySize=auto;html=1;entryX=0.25;entryY=0;entryDx=0;entryDy=0;fontSize=16;" parent="1" source="5UM-Hns9XQgAQtrVBFiw-170" target="5UM-Hns9XQgAQtrVBFiw-171" edge="1">
          <mxGeometry relative="1" as="geometry">
            <Array as="points">
              <mxPoint x="998" y="818" />
            </Array>
          </mxGeometry>
        </mxCell>
        <mxCell id="5UM-Hns9XQgAQtrVBFiw-170" value="if(canMoveHere)" style="rounded=0;whiteSpace=wrap;html=1;fontSize=16;" parent="1" vertex="1">
          <mxGeometry x="860" y="716.5" width="170" height="60" as="geometry" />
        </mxCell>
        <mxCell id="5UM-Hns9XQgAQtrVBFiw-171" value="hitBox.y = GetEntityYPosUnderRoofOrAboveFloor();" style="rounded=0;whiteSpace=wrap;html=1;fontSize=16;" parent="1" vertex="1">
          <mxGeometry x="860" y="860" width="550" height="60" as="geometry" />
        </mxCell>
        <mxCell id="5UM-Hns9XQgAQtrVBFiw-194" style="edgeStyle=orthogonalEdgeStyle;rounded=0;orthogonalLoop=1;jettySize=auto;html=1;entryX=0.5;entryY=0;entryDx=0;entryDy=0;" parent="1" source="5UM-Hns9XQgAQtrVBFiw-172" target="5UM-Hns9XQgAQtrVBFiw-193" edge="1">
          <mxGeometry relative="1" as="geometry" />
        </mxCell>
        <mxCell id="5UM-Hns9XQgAQtrVBFiw-172" value="updateXPos()" style="rounded=0;whiteSpace=wrap;html=1;fontSize=16;" parent="1" vertex="1">
          <mxGeometry x="620" y="860" width="120" height="60" as="geometry" />
        </mxCell>
        <mxCell id="5UM-Hns9XQgAQtrVBFiw-173" value="resetInAir()" style="rounded=0;whiteSpace=wrap;html=1;fontSize=16;" parent="1" vertex="1">
          <mxGeometry x="1190" y="980" width="120" height="60" as="geometry" />
        </mxCell>
        <mxCell id="5UM-Hns9XQgAQtrVBFiw-176" value="&lt;font style=&quot;font-size: 16px;&quot;&gt;hitBox.y += airSpeed&lt;/font&gt;&lt;div style=&quot;font-size: 16px;&quot;&gt;&lt;font style=&quot;font-size: 16px;&quot;&gt;airSpeed = gravity&lt;/font&gt;&lt;/div&gt;&lt;div style=&quot;font-size: 16px;&quot;&gt;&lt;font style=&quot;font-size: 16px;&quot;&gt;updateXPos()&lt;/font&gt;&lt;/div&gt;" style="rounded=0;whiteSpace=wrap;html=1;fontSize=16;" parent="1" vertex="1">
          <mxGeometry x="1130" y="693" width="200" height="107" as="geometry" />
        </mxCell>
        <mxCell id="5UM-Hns9XQgAQtrVBFiw-188" style="edgeStyle=orthogonalEdgeStyle;rounded=0;orthogonalLoop=1;jettySize=auto;html=1;fontSize=16;" parent="1" source="5UM-Hns9XQgAQtrVBFiw-186" target="5UM-Hns9XQgAQtrVBFiw-173" edge="1">
          <mxGeometry relative="1" as="geometry" />
        </mxCell>
        <mxCell id="5UM-Hns9XQgAQtrVBFiw-189" value="True" style="edgeLabel;html=1;align=center;verticalAlign=middle;resizable=0;points=[];fontSize=16;" parent="5UM-Hns9XQgAQtrVBFiw-188" vertex="1" connectable="0">
          <mxGeometry x="-0.0545" relative="1" as="geometry">
            <mxPoint as="offset" />
          </mxGeometry>
        </mxCell>
        <mxCell id="5UM-Hns9XQgAQtrVBFiw-191" value="False" style="edgeStyle=orthogonalEdgeStyle;rounded=0;orthogonalLoop=1;jettySize=auto;html=1;entryX=0.314;entryY=-0.067;entryDx=0;entryDy=0;fontSize=16;entryPerimeter=0;" parent="1" source="5UM-Hns9XQgAQtrVBFiw-186" target="5UM-Hns9XQgAQtrVBFiw-190" edge="1">
          <mxGeometry relative="1" as="geometry" />
        </mxCell>
        <mxCell id="5UM-Hns9XQgAQtrVBFiw-186" value="if(airSpeed &amp;gt; 0)" style="rounded=0;whiteSpace=wrap;html=1;fontSize=16;" parent="1" vertex="1">
          <mxGeometry x="860" y="980" width="220" height="60" as="geometry" />
        </mxCell>
        <mxCell id="5UM-Hns9XQgAQtrVBFiw-187" style="edgeStyle=orthogonalEdgeStyle;rounded=0;orthogonalLoop=1;jettySize=auto;html=1;exitX=0.25;exitY=1;exitDx=0;exitDy=0;entryX=0.627;entryY=-0.033;entryDx=0;entryDy=0;entryPerimeter=0;fontSize=16;" parent="1" source="5UM-Hns9XQgAQtrVBFiw-171" target="5UM-Hns9XQgAQtrVBFiw-186" edge="1">
          <mxGeometry relative="1" as="geometry" />
        </mxCell>
        <mxCell id="5UM-Hns9XQgAQtrVBFiw-190" value="airSpeed = fallSpeedAfterCollision" style="rounded=0;whiteSpace=wrap;html=1;fontSize=16;" parent="1" vertex="1">
          <mxGeometry x="860" y="1140" width="350" height="60" as="geometry" />
        </mxCell>
        <mxCell id="5UM-Hns9XQgAQtrVBFiw-193" value="moving = true" style="rounded=0;whiteSpace=wrap;html=1;" parent="1" vertex="1">
          <mxGeometry x="620" y="990" width="120" height="60" as="geometry" />
        </mxCell>
        <mxCell id="5UM-Hns9XQgAQtrVBFiw-196" value="&lt;h1 style=&quot;margin-top: 0px;&quot;&gt;if(jump)&lt;/h1&gt;&lt;div&gt;kiểm tra xem điều kiện jump có là true( lắng nghe sự kiện từ bàn phím )&lt;/div&gt;" style="text;html=1;whiteSpace=wrap;overflow=hidden;rounded=0;" parent="1" vertex="1">
          <mxGeometry x="300" y="-50" width="180" height="120" as="geometry" />
        </mxCell>
        <mxCell id="5UM-Hns9XQgAQtrVBFiw-199" value="&lt;h1 style=&quot;margin-top: 0px;&quot;&gt;jump()&lt;/h1&gt;&lt;div&gt;kiểm state inAir của vật thể ( ở đây mục đích là không để cho vật thể jump ở trên không )&lt;/div&gt;&lt;div&gt;và đặt tốc độ jump cho vật thể&lt;/div&gt;" style="text;html=1;whiteSpace=wrap;overflow=hidden;rounded=0;dashed=1;" parent="1" vertex="1">
          <mxGeometry x="830" y="-250" width="180" height="120" as="geometry" />
        </mxCell>
        <mxCell id="5UM-Hns9XQgAQtrVBFiw-214" value="" style="group" parent="1" vertex="1" connectable="0">
          <mxGeometry x="1140" y="-550" width="440" height="340" as="geometry" />
        </mxCell>
        <mxCell id="5UM-Hns9XQgAQtrVBFiw-213" value="" style="rounded=0;whiteSpace=wrap;html=1;" parent="5UM-Hns9XQgAQtrVBFiw-214" vertex="1">
          <mxGeometry width="440" height="340" as="geometry" />
        </mxCell>
        <mxCell id="5UM-Hns9XQgAQtrVBFiw-212" style="edgeStyle=orthogonalEdgeStyle;rounded=0;orthogonalLoop=1;jettySize=auto;html=1;entryX=0.5;entryY=0;entryDx=0;entryDy=0;" parent="5UM-Hns9XQgAQtrVBFiw-214" source="5UM-Hns9XQgAQtrVBFiw-201" target="5UM-Hns9XQgAQtrVBFiw-202" edge="1">
          <mxGeometry relative="1" as="geometry" />
        </mxCell>
        <mxCell id="5UM-Hns9XQgAQtrVBFiw-201" value="&lt;font style=&quot;font-size: 16px;&quot;&gt;jump()&lt;/font&gt;" style="rounded=0;whiteSpace=wrap;html=1;" parent="5UM-Hns9XQgAQtrVBFiw-214" vertex="1">
          <mxGeometry x="20" y="25" width="120" height="60" as="geometry" />
        </mxCell>
        <mxCell id="5UM-Hns9XQgAQtrVBFiw-205" style="edgeStyle=orthogonalEdgeStyle;rounded=0;orthogonalLoop=1;jettySize=auto;html=1;entryX=0;entryY=0.5;entryDx=0;entryDy=0;" parent="5UM-Hns9XQgAQtrVBFiw-214" source="5UM-Hns9XQgAQtrVBFiw-202" target="5UM-Hns9XQgAQtrVBFiw-204" edge="1">
          <mxGeometry relative="1" as="geometry" />
        </mxCell>
        <mxCell id="5UM-Hns9XQgAQtrVBFiw-206" value="True" style="edgeLabel;html=1;align=center;verticalAlign=middle;resizable=0;points=[];fontSize=16;" parent="5UM-Hns9XQgAQtrVBFiw-205" vertex="1" connectable="0">
          <mxGeometry x="-0.0667" y="-2" relative="1" as="geometry">
            <mxPoint as="offset" />
          </mxGeometry>
        </mxCell>
        <mxCell id="5UM-Hns9XQgAQtrVBFiw-209" style="edgeStyle=orthogonalEdgeStyle;rounded=0;orthogonalLoop=1;jettySize=auto;html=1;entryX=0.5;entryY=0;entryDx=0;entryDy=0;" parent="5UM-Hns9XQgAQtrVBFiw-214" source="5UM-Hns9XQgAQtrVBFiw-202" target="5UM-Hns9XQgAQtrVBFiw-207" edge="1">
          <mxGeometry relative="1" as="geometry" />
        </mxCell>
        <mxCell id="5UM-Hns9XQgAQtrVBFiw-210" value="&lt;font style=&quot;font-size: 16px;&quot;&gt;False&lt;/font&gt;" style="edgeLabel;html=1;align=center;verticalAlign=middle;resizable=0;points=[];" parent="5UM-Hns9XQgAQtrVBFiw-209" vertex="1" connectable="0">
          <mxGeometry x="-0.0933" y="4" relative="1" as="geometry">
            <mxPoint as="offset" />
          </mxGeometry>
        </mxCell>
        <mxCell id="5UM-Hns9XQgAQtrVBFiw-202" value="&lt;font style=&quot;font-size: 16px;&quot;&gt;if(inAir)&lt;/font&gt;" style="rounded=0;whiteSpace=wrap;html=1;" parent="5UM-Hns9XQgAQtrVBFiw-214" vertex="1">
          <mxGeometry x="20" y="125" width="120" height="60" as="geometry" />
        </mxCell>
        <mxCell id="5UM-Hns9XQgAQtrVBFiw-203" value="airSpeed = jumpSpeed" style="rounded=0;whiteSpace=wrap;html=1;fontSize=16;" parent="5UM-Hns9XQgAQtrVBFiw-214" vertex="1">
          <mxGeometry x="200" y="255" width="220" height="60" as="geometry" />
        </mxCell>
        <mxCell id="5UM-Hns9XQgAQtrVBFiw-204" value="&lt;font style=&quot;font-size: 16px;&quot;&gt;return(kết thúc jump())&lt;/font&gt;" style="rounded=0;whiteSpace=wrap;html=1;fontSize=16;" parent="5UM-Hns9XQgAQtrVBFiw-214" vertex="1">
          <mxGeometry x="230" y="125" width="120" height="60" as="geometry" />
        </mxCell>
        <mxCell id="5UM-Hns9XQgAQtrVBFiw-211" style="edgeStyle=orthogonalEdgeStyle;rounded=0;orthogonalLoop=1;jettySize=auto;html=1;entryX=0;entryY=0.5;entryDx=0;entryDy=0;" parent="5UM-Hns9XQgAQtrVBFiw-214" source="5UM-Hns9XQgAQtrVBFiw-207" target="5UM-Hns9XQgAQtrVBFiw-203" edge="1">
          <mxGeometry relative="1" as="geometry" />
        </mxCell>
        <mxCell id="5UM-Hns9XQgAQtrVBFiw-207" value="inAir = true;" style="rounded=0;whiteSpace=wrap;html=1;fontSize=16;" parent="5UM-Hns9XQgAQtrVBFiw-214" vertex="1">
          <mxGeometry x="20" y="255" width="120" height="60" as="geometry" />
        </mxCell>
        <mxCell id="zk4T1iMXKUme4IOyS1ii-31" style="edgeStyle=orthogonalEdgeStyle;rounded=0;orthogonalLoop=1;jettySize=auto;html=1;entryX=0.5;entryY=1;entryDx=0;entryDy=0;" edge="1" parent="1" source="zk4T1iMXKUme4IOyS1ii-1" target="zk4T1iMXKUme4IOyS1ii-2">
          <mxGeometry relative="1" as="geometry" />
        </mxCell>
        <mxCell id="zk4T1iMXKUme4IOyS1ii-1" value="Game Start" style="rounded=0;whiteSpace=wrap;html=1;fillColor=#f8cecc;strokeColor=#b85450;" vertex="1" parent="1">
          <mxGeometry x="3440" y="581.18" width="120" height="60" as="geometry" />
        </mxCell>
        <mxCell id="zk4T1iMXKUme4IOyS1ii-37" style="edgeStyle=orthogonalEdgeStyle;rounded=0;orthogonalLoop=1;jettySize=auto;html=1;entryX=0.5;entryY=1;entryDx=0;entryDy=0;" edge="1" parent="1" source="zk4T1iMXKUme4IOyS1ii-2" target="zk4T1iMXKUme4IOyS1ii-36">
          <mxGeometry relative="1" as="geometry" />
        </mxCell>
        <mxCell id="zk4T1iMXKUme4IOyS1ii-38" value="True" style="edgeLabel;html=1;align=center;verticalAlign=middle;resizable=0;points=[];" vertex="1" connectable="0" parent="zk4T1iMXKUme4IOyS1ii-37">
          <mxGeometry x="-0.3485" y="-3" relative="1" as="geometry">
            <mxPoint as="offset" />
          </mxGeometry>
        </mxCell>
        <mxCell id="zk4T1iMXKUme4IOyS1ii-46" style="edgeStyle=orthogonalEdgeStyle;rounded=0;orthogonalLoop=1;jettySize=auto;html=1;entryX=1;entryY=0.75;entryDx=0;entryDy=0;" edge="1" parent="1" source="zk4T1iMXKUme4IOyS1ii-2" target="zk4T1iMXKUme4IOyS1ii-3">
          <mxGeometry relative="1" as="geometry" />
        </mxCell>
        <mxCell id="zk4T1iMXKUme4IOyS1ii-47" value="False" style="edgeLabel;html=1;align=center;verticalAlign=middle;resizable=0;points=[];" vertex="1" connectable="0" parent="zk4T1iMXKUme4IOyS1ii-46">
          <mxGeometry x="-0.602" y="2" relative="1" as="geometry">
            <mxPoint x="1" as="offset" />
          </mxGeometry>
        </mxCell>
        <mxCell id="zk4T1iMXKUme4IOyS1ii-2" value="InAir" style="rounded=0;whiteSpace=wrap;html=1;" vertex="1" parent="1">
          <mxGeometry x="3440" y="461.18" width="120" height="60" as="geometry" />
        </mxCell>
        <mxCell id="zk4T1iMXKUme4IOyS1ii-8" style="edgeStyle=orthogonalEdgeStyle;rounded=0;orthogonalLoop=1;jettySize=auto;html=1;entryX=0.5;entryY=0;entryDx=0;entryDy=0;" edge="1" parent="1" source="zk4T1iMXKUme4IOyS1ii-3" target="zk4T1iMXKUme4IOyS1ii-7">
          <mxGeometry relative="1" as="geometry">
            <Array as="points" />
          </mxGeometry>
        </mxCell>
        <mxCell id="zk4T1iMXKUme4IOyS1ii-11" value="True" style="edgeLabel;html=1;align=center;verticalAlign=middle;resizable=0;points=[];" vertex="1" connectable="0" parent="zk4T1iMXKUme4IOyS1ii-8">
          <mxGeometry x="0.1" relative="1" as="geometry">
            <mxPoint y="-4" as="offset" />
          </mxGeometry>
        </mxCell>
        <mxCell id="zk4T1iMXKUme4IOyS1ii-43" style="edgeStyle=orthogonalEdgeStyle;rounded=0;orthogonalLoop=1;jettySize=auto;html=1;" edge="1" parent="1" source="zk4T1iMXKUme4IOyS1ii-3">
          <mxGeometry relative="1" as="geometry">
            <mxPoint x="3560" y="491" as="targetPoint" />
            <Array as="points">
              <mxPoint x="3600" y="210" />
              <mxPoint x="3600" y="491" />
            </Array>
          </mxGeometry>
        </mxCell>
        <mxCell id="zk4T1iMXKUme4IOyS1ii-45" value="False" style="edgeLabel;html=1;align=center;verticalAlign=middle;resizable=0;points=[];" vertex="1" connectable="0" parent="zk4T1iMXKUme4IOyS1ii-43">
          <mxGeometry x="-0.8929" y="1" relative="1" as="geometry">
            <mxPoint as="offset" />
          </mxGeometry>
        </mxCell>
        <mxCell id="zk4T1iMXKUme4IOyS1ii-3" value="OnFloor" style="rounded=0;whiteSpace=wrap;html=1;" vertex="1" parent="1">
          <mxGeometry x="3260" y="200" width="120" height="60" as="geometry" />
        </mxCell>
        <mxCell id="zk4T1iMXKUme4IOyS1ii-10" style="edgeStyle=orthogonalEdgeStyle;rounded=0;orthogonalLoop=1;jettySize=auto;html=1;entryX=1;entryY=0.5;entryDx=0;entryDy=0;" edge="1" parent="1" source="zk4T1iMXKUme4IOyS1ii-7" target="zk4T1iMXKUme4IOyS1ii-9">
          <mxGeometry relative="1" as="geometry">
            <Array as="points">
              <mxPoint x="3220" y="370" />
              <mxPoint x="3220" y="230" />
            </Array>
          </mxGeometry>
        </mxCell>
        <mxCell id="zk4T1iMXKUme4IOyS1ii-7" value="Idle" style="rounded=0;whiteSpace=wrap;html=1;" vertex="1" parent="1">
          <mxGeometry x="3260" y="340" width="120" height="60" as="geometry" />
        </mxCell>
        <mxCell id="zk4T1iMXKUme4IOyS1ii-48" style="edgeStyle=orthogonalEdgeStyle;rounded=0;orthogonalLoop=1;jettySize=auto;html=1;" edge="1" parent="1" source="zk4T1iMXKUme4IOyS1ii-9" target="zk4T1iMXKUme4IOyS1ii-12">
          <mxGeometry relative="1" as="geometry" />
        </mxCell>
        <mxCell id="zk4T1iMXKUme4IOyS1ii-9" value="Running" style="rounded=0;whiteSpace=wrap;html=1;" vertex="1" parent="1">
          <mxGeometry x="3070" y="200" width="120" height="60" as="geometry" />
        </mxCell>
        <mxCell id="zk4T1iMXKUme4IOyS1ii-16" style="edgeStyle=orthogonalEdgeStyle;rounded=0;orthogonalLoop=1;jettySize=auto;html=1;" edge="1" parent="1" source="zk4T1iMXKUme4IOyS1ii-12" target="zk4T1iMXKUme4IOyS1ii-15">
          <mxGeometry relative="1" as="geometry" />
        </mxCell>
        <mxCell id="zk4T1iMXKUme4IOyS1ii-17" value="True" style="edgeLabel;html=1;align=center;verticalAlign=middle;resizable=0;points=[];" vertex="1" connectable="0" parent="zk4T1iMXKUme4IOyS1ii-16">
          <mxGeometry x="-0.2222" y="3" relative="1" as="geometry">
            <mxPoint x="-3" y="4" as="offset" />
          </mxGeometry>
        </mxCell>
        <mxCell id="zk4T1iMXKUme4IOyS1ii-50" style="edgeStyle=orthogonalEdgeStyle;rounded=0;orthogonalLoop=1;jettySize=auto;html=1;exitX=0;exitY=0.25;exitDx=0;exitDy=0;entryX=0;entryY=0.5;entryDx=0;entryDy=0;" edge="1" parent="1" source="zk4T1iMXKUme4IOyS1ii-12" target="zk4T1iMXKUme4IOyS1ii-9">
          <mxGeometry relative="1" as="geometry">
            <Array as="points">
              <mxPoint x="3020" y="355" />
              <mxPoint x="3020" y="230" />
            </Array>
          </mxGeometry>
        </mxCell>
        <mxCell id="zk4T1iMXKUme4IOyS1ii-51" value="False" style="edgeLabel;html=1;align=center;verticalAlign=middle;resizable=0;points=[];" vertex="1" connectable="0" parent="zk4T1iMXKUme4IOyS1ii-50">
          <mxGeometry x="-0.7162" y="2" relative="1" as="geometry">
            <mxPoint x="12" y="-7" as="offset" />
          </mxGeometry>
        </mxCell>
        <mxCell id="zk4T1iMXKUme4IOyS1ii-12" value="is Player in Sight" style="rounded=0;whiteSpace=wrap;html=1;" vertex="1" parent="1">
          <mxGeometry x="3070" y="340" width="120" height="60" as="geometry" />
        </mxCell>
        <mxCell id="zk4T1iMXKUme4IOyS1ii-19" style="edgeStyle=orthogonalEdgeStyle;rounded=0;orthogonalLoop=1;jettySize=auto;html=1;entryX=0.5;entryY=0;entryDx=0;entryDy=0;" edge="1" parent="1" source="zk4T1iMXKUme4IOyS1ii-15" target="zk4T1iMXKUme4IOyS1ii-18">
          <mxGeometry relative="1" as="geometry">
            <Array as="points">
              <mxPoint x="3130" y="560" />
              <mxPoint x="3130" y="560" />
            </Array>
          </mxGeometry>
        </mxCell>
        <mxCell id="zk4T1iMXKUme4IOyS1ii-15" value="Move toward player" style="rounded=0;whiteSpace=wrap;html=1;" vertex="1" parent="1">
          <mxGeometry x="3070" y="463" width="120" height="60" as="geometry" />
        </mxCell>
        <mxCell id="zk4T1iMXKUme4IOyS1ii-20" style="edgeStyle=orthogonalEdgeStyle;rounded=0;orthogonalLoop=1;jettySize=auto;html=1;entryX=0;entryY=0.5;entryDx=0;entryDy=0;" edge="1" parent="1" source="zk4T1iMXKUme4IOyS1ii-18" target="zk4T1iMXKUme4IOyS1ii-12">
          <mxGeometry relative="1" as="geometry">
            <Array as="points">
              <mxPoint x="3020" y="613" />
              <mxPoint x="3020" y="370" />
            </Array>
          </mxGeometry>
        </mxCell>
        <mxCell id="zk4T1iMXKUme4IOyS1ii-21" value="False" style="edgeLabel;html=1;align=center;verticalAlign=middle;resizable=0;points=[];" vertex="1" connectable="0" parent="zk4T1iMXKUme4IOyS1ii-20">
          <mxGeometry x="-0.3841" y="-3" relative="1" as="geometry">
            <mxPoint x="17" y="55" as="offset" />
          </mxGeometry>
        </mxCell>
        <mxCell id="zk4T1iMXKUme4IOyS1ii-29" style="edgeStyle=orthogonalEdgeStyle;rounded=0;orthogonalLoop=1;jettySize=auto;html=1;exitX=1;exitY=0.75;exitDx=0;exitDy=0;entryX=0;entryY=0.75;entryDx=0;entryDy=0;" edge="1" parent="1" source="zk4T1iMXKUme4IOyS1ii-18" target="zk4T1iMXKUme4IOyS1ii-22">
          <mxGeometry relative="1" as="geometry" />
        </mxCell>
        <mxCell id="zk4T1iMXKUme4IOyS1ii-30" value="True" style="edgeLabel;html=1;align=center;verticalAlign=middle;resizable=0;points=[];" vertex="1" connectable="0" parent="zk4T1iMXKUme4IOyS1ii-29">
          <mxGeometry x="-0.4286" relative="1" as="geometry">
            <mxPoint as="offset" />
          </mxGeometry>
        </mxCell>
        <mxCell id="zk4T1iMXKUme4IOyS1ii-18" value="is Player in Range" style="rounded=0;whiteSpace=wrap;html=1;" vertex="1" parent="1">
          <mxGeometry x="3070" y="583" width="120" height="60" as="geometry" />
        </mxCell>
        <mxCell id="zk4T1iMXKUme4IOyS1ii-26" style="edgeStyle=orthogonalEdgeStyle;rounded=0;orthogonalLoop=1;jettySize=auto;html=1;entryX=0.5;entryY=1;entryDx=0;entryDy=0;" edge="1" parent="1" source="zk4T1iMXKUme4IOyS1ii-22" target="zk4T1iMXKUme4IOyS1ii-25">
          <mxGeometry relative="1" as="geometry" />
        </mxCell>
        <mxCell id="zk4T1iMXKUme4IOyS1ii-22" value="Attacking" style="rounded=0;whiteSpace=wrap;html=1;" vertex="1" parent="1">
          <mxGeometry x="3260" y="583" width="120" height="60" as="geometry" />
        </mxCell>
        <mxCell id="zk4T1iMXKUme4IOyS1ii-27" style="edgeStyle=orthogonalEdgeStyle;rounded=0;orthogonalLoop=1;jettySize=auto;html=1;entryX=0.5;entryY=1;entryDx=0;entryDy=0;" edge="1" parent="1" source="zk4T1iMXKUme4IOyS1ii-25" target="zk4T1iMXKUme4IOyS1ii-7">
          <mxGeometry relative="1" as="geometry">
            <Array as="points">
              <mxPoint x="3320" y="440" />
              <mxPoint x="3320" y="440" />
            </Array>
          </mxGeometry>
        </mxCell>
        <mxCell id="zk4T1iMXKUme4IOyS1ii-52" value="True" style="edgeLabel;html=1;align=center;verticalAlign=middle;resizable=0;points=[];" vertex="1" connectable="0" parent="zk4T1iMXKUme4IOyS1ii-27">
          <mxGeometry x="-0.3626" y="-1" relative="1" as="geometry">
            <mxPoint as="offset" />
          </mxGeometry>
        </mxCell>
        <mxCell id="zk4T1iMXKUme4IOyS1ii-53" style="edgeStyle=orthogonalEdgeStyle;rounded=0;orthogonalLoop=1;jettySize=auto;html=1;entryX=1;entryY=0.25;entryDx=0;entryDy=0;" edge="1" parent="1" source="zk4T1iMXKUme4IOyS1ii-25" target="zk4T1iMXKUme4IOyS1ii-18">
          <mxGeometry relative="1" as="geometry" />
        </mxCell>
        <mxCell id="zk4T1iMXKUme4IOyS1ii-54" value="False" style="edgeLabel;html=1;align=center;verticalAlign=middle;resizable=0;points=[];" vertex="1" connectable="0" parent="zk4T1iMXKUme4IOyS1ii-53">
          <mxGeometry x="-0.3547" relative="1" as="geometry">
            <mxPoint as="offset" />
          </mxGeometry>
        </mxCell>
        <mxCell id="zk4T1iMXKUme4IOyS1ii-25" value="Out of Range" style="rounded=0;whiteSpace=wrap;html=1;" vertex="1" parent="1">
          <mxGeometry x="3260" y="463" width="120" height="60" as="geometry" />
        </mxCell>
        <mxCell id="zk4T1iMXKUme4IOyS1ii-42" style="edgeStyle=orthogonalEdgeStyle;rounded=0;orthogonalLoop=1;jettySize=auto;html=1;entryX=1;entryY=0.5;entryDx=0;entryDy=0;" edge="1" parent="1" source="zk4T1iMXKUme4IOyS1ii-36" target="zk4T1iMXKUme4IOyS1ii-3">
          <mxGeometry relative="1" as="geometry">
            <Array as="points">
              <mxPoint x="3500" y="230" />
            </Array>
          </mxGeometry>
        </mxCell>
        <mxCell id="zk4T1iMXKUme4IOyS1ii-36" value="Fall" style="rounded=0;whiteSpace=wrap;html=1;" vertex="1" parent="1">
          <mxGeometry x="3440" y="338.18" width="120" height="60" as="geometry" />
        </mxCell>
      </root>
    </mxGraphModel>
  </diagram>
</mxfile>
